<svg width="86" height="16" viewBox="0 0 86 16" fill="none" xmlns="http://www.w3.org/2000/svg">
<path d="M84.1392 15H72.4212V13.722L74.1132 12.39V2.84995L72.0612 2.29195L72.7812 0.851954H83.9592L85.4532 0.527954V5.38795L84.1932 5.92795L81.9252 2.56195H77.9832V6.91795H79.7292L81.0432 5.06395H82.3212V10.176L80.8812 10.896L79.6752 8.62795H77.9832V13.29H81.7632L84.3732 9.56395L85.6332 10.104V15.324L84.1392 15Z" fill="black"/>
<path d="M65.7063 13.0921L67.7763 13.5961L67.0563 15.0361H60.3243V13.7581L62.0163 12.4261V10.5181L57.0663 2.88605L55.7883 2.31005L56.1483 0.87005H62.7003V2.14805L61.5303 3.04805L64.5363 7.62005L67.4703 3.60605L64.9683 2.29205L65.6883 0.852051H71.7003V2.13005L69.6483 3.75005L65.7063 9.25805V13.0921Z" fill="black"/>
<path d="M53.9881 3.58799L50.1901 14.406L46.3381 15.324L43.9801 8.84399L42.3601 14.406L38.5081 15.324L33.6661 3.11999L31.8121 2.27399L32.5321 0.833984H38.9041V2.11199L37.6621 3.01199L41.1181 11.904L42.9181 5.90999L41.8921 3.08398L40.2721 2.29199L40.9921 0.851985H47.9041V2.12998L45.9961 3.19199L49.0561 11.958L51.9001 3.73199L49.2541 2.29199L49.9741 0.851985H55.9861V2.11199L53.9881 3.58799Z" fill="black"/>
<path d="M23.8289 0.491943C25.2689 0.491943 26.5409 0.797943 27.6449 1.40994C28.7489 2.02194 29.6009 2.86794 30.2009 3.94794C30.8009 5.02794 31.1009 6.25194 31.1009 7.61994C31.1009 9.02394 30.6449 10.3199 29.7329 11.5079C28.8329 12.6959 27.7109 13.6379 26.3669 14.3339C25.0229 15.0179 23.7509 15.3599 22.5509 15.3599C21.1109 15.3599 19.8389 15.0599 18.7349 14.4599C17.6429 13.8479 16.7909 13.0019 16.1789 11.9219C15.5789 10.8419 15.2789 9.61794 15.2789 8.24994C15.2789 6.84594 15.7289 5.54994 16.6289 4.36194C17.5409 3.16194 18.6689 2.21994 20.0129 1.53594C21.3569 0.839943 22.6289 0.491943 23.8289 0.491943ZM22.7849 2.90394C22.1849 2.90394 21.6329 3.10194 21.1289 3.49794C20.6369 3.88194 20.2409 4.41594 19.9409 5.09994C19.6529 5.78394 19.5089 6.54594 19.5089 7.38594C19.5089 8.40594 19.6589 9.33595 19.9589 10.1759C20.2589 11.0159 20.7149 11.6879 21.3269 12.1919C21.9509 12.6959 22.7069 12.9479 23.5949 12.9479C24.1949 12.9479 24.7409 12.7559 25.2329 12.3719C25.7369 11.9759 26.1329 11.4359 26.4209 10.7519C26.7209 10.0679 26.8709 9.30594 26.8709 8.46594C26.8709 7.43394 26.7209 6.49794 26.4209 5.65794C26.1209 4.81794 25.6649 4.15194 25.0529 3.65994C24.4409 3.15594 23.6849 2.90394 22.7849 2.90394Z" fill="black"/>
<path d="M11.502 7.296C12.342 7.644 12.996 8.136 13.464 8.772C13.944 9.396 14.184 10.092 14.184 10.86C14.184 11.616 13.842 12.33 13.158 13.002C12.474 13.662 11.622 14.19 10.602 14.586C9.59404 14.982 8.62804 15.18 7.70404 15.18C7.10404 15.18 6.51604 15.15 5.94004 15.09C4.98004 15.03 4.23604 15 3.70804 15H0.702041V13.722L2.39404 12.39V2.778L0.342041 2.292L1.06204 0.851998H3.69004C4.78204 0.851998 5.85604 0.815998 6.91204 0.743997C7.72804 0.695997 8.32804 0.671997 8.71204 0.671997C9.66004 0.671997 10.494 0.827997 11.214 1.14C11.934 1.452 12.486 1.878 12.87 2.418C13.266 2.946 13.464 3.54 13.464 4.2C13.464 4.776 13.284 5.334 12.924 5.874C12.576 6.402 12.102 6.882 11.502 7.314V7.296ZM9.43204 5.208C9.43204 4.392 9.25204 3.744 8.89204 3.264C8.54404 2.772 8.02204 2.526 7.32604 2.526C6.95404 2.526 6.60604 2.58 6.28204 2.688V7.17H7.95604C8.94004 7.17 9.43204 6.516 9.43204 5.208ZM8.20804 13.128C8.80804 13.128 9.27604 12.972 9.61204 12.66C9.96004 12.348 10.134 11.91 10.134 11.346C10.134 10.59 9.93604 9.972 9.54004 9.492C9.14404 9 8.56204 8.73 7.79404 8.682H7.45204H6.28204V12.804C6.85804 13.008 7.50604 13.11 8.22604 13.11L8.20804 13.128Z" fill="black"/>
</svg>
